<svg xmlns="http://www.w3.org/2000/svg" version="1.1" xmlns:xlink="http://www.w3.org/1999/xlink" viewBox="0 0 200 200"><rect width="200" height="200" fill="url('#gradient')"></rect><defs><linearGradient id="gradient" gradientTransform="rotate(45 0.5 0.5)"><stop offset="0%" stop-color="#0ab5fa"></stop><stop offset="100%" stop-color="#e0b93b"></stop></linearGradient></defs><g><g fill="#0a4e91" transform="matrix(2.3192719919110214,0,0,2.3192719919110214,44.06954689153525,112.31783357248027)" stroke="#0c325a" stroke-width="0.2"><path d="M9.98 0L9.15-2.66L4.45-2.66L3.63 0L-0.03 0L5.19-14.22L8.41-14.22L13.66 0L9.98 0ZM6.80-10.23L5.27-5.30L8.33-5.30L6.80-10.23ZM21.00-10.64L20.94-7.59L19.85-7.67Q18.30-7.67 17.86-6.69L17.86-6.69L17.86 0L14.57 0L14.57-10.57L17.66-10.57L17.76-9.21Q18.59-10.76 20.08-10.76L20.08-10.76Q20.61-10.76 21.00-10.64L21.00-10.64ZM22.36-10.57L25.66-10.57L25.66 0.36Q25.65 2.24 24.59 3.25Q23.53 4.27 21.62 4.27L21.62 4.27Q20.80 4.27 20.07 4.10L20.07 4.10L20.07 1.61Q20.63 1.70 21.00 1.70L21.00 1.70Q22.36 1.70 22.36 0.34L22.36 0.34L22.36-10.57ZM22.12-13.29L22.12-13.29Q22.12-13.99 22.63-14.44Q23.13-14.89 23.95-14.89Q24.76-14.89 25.26-14.44Q25.77-13.99 25.77-13.29Q25.77-12.59 25.26-12.14Q24.76-11.69 23.95-11.69Q23.13-11.69 22.63-12.14Q22.12-12.59 22.12-13.29ZM33.92 0L33.82-1.14Q32.77 0.20 31.00 0.20L31.00 0.20Q29.26 0.20 28.36-0.82Q27.47-1.83 27.47-3.72L27.47-3.72L27.47-10.57L30.76-10.57L30.76-3.70Q30.76-2.34 32.08-2.34L32.08-2.34Q33.21-2.34 33.69-3.15L33.69-3.15L33.69-10.57L37.00-10.57L37.00 0L33.92 0ZM38.74-10.57L41.83-10.57L41.93-9.33Q43.03-10.76 44.95-10.76L44.95-10.76Q46.60-10.76 47.42-9.78Q48.23-8.79 48.26-6.81L48.26-6.81L48.26 0L44.96 0L44.96-6.67Q44.96-7.47 44.64-7.85Q44.32-8.22 43.47-8.22L43.47-8.22Q42.50-8.22 42.03-7.46L42.03-7.46L42.03 0L38.74 0L38.74-10.57Z"></path></g></g></svg>